<?xml version="1.0" standalone="no"?>
<!DOCTYPE svg PUBLIC "-//W3C//DTD SVG 20010904//EN"
 "http://www.w3.org/TR/2001/REC-SVG-20010904/DTD/svg10.dtd">
<svg version="1.0" xmlns="http://www.w3.org/2000/svg"
 width="904.000000pt" height="476.000000pt" viewBox="0 0 904.000000 476.000000"
 preserveAspectRatio="xMidYMid meet">

<g transform="translate(0.000000,476.000000) scale(0.100000,-0.100000)"
fill="#000000" stroke="none">
<path d="M378 4734 c-188 -45 -338 -213 -368 -409 -7 -48 -10 -678 -8 -1995 3
-1796 5 -1928 21 -1974 51 -146 166 -263 312 -318 l60 -23 4098 -3 c4481 -2
4160 -6 4279 54 126 64 236 221 258 369 7 48 10 678 8 1995 -3 1796 -5 1928
-21 1974 -51 146 -166 263 -312 318 l-60 23 -4105 2 c-3477 1 -4114 -1 -4162
-13z m2594 -1783 c50 -19 191 -116 256 -174 26 -24 62 -132 62 -186 0 -20 -9
-55 -20 -78 l-19 -43 -88 0 c-68 0 -95 4 -119 19 -32 20 -85 93 -125 175 -58
118 -179 201 -288 200 -64 -1 -157 -33 -201 -70 -34 -30 -124 -182 -139 -239
-16 -58 -13 -242 4 -327 39 -187 152 -371 264 -427 51 -26 157 -58 221 -66 41
-5 76 -1 140 15 144 36 159 47 233 150 69 96 81 125 117 280 12 52 51 174 86
270 111 302 104 288 213 388 140 127 158 134 344 136 134 1 160 -2 219 -22 87
-30 136 -64 244 -167 49 -47 90 -85 91 -85 1 0 4 13 8 30 10 45 143 163 235
208 l74 37 136 -1 c74 0 153 -6 176 -12 93 -27 244 -152 281 -233 10 -21 20
-39 23 -39 3 0 22 27 44 61 49 76 122 140 208 183 81 41 197 54 323 37 99 -14
159 -43 252 -122 74 -63 105 -112 163 -260 40 -99 69 -342 85 -704 9 -191 17
-223 66 -265 31 -27 41 -44 46 -76 3 -25 1 -44 -6 -48 -6 -4 -133 -8 -282 -8
-252 -1 -273 0 -285 17 -21 29 -6 66 46 116 27 25 52 59 56 74 12 48 -24 682
-46 803 -5 30 -28 96 -51 148 -65 149 -102 170 -283 163 -76 -4 -88 -7 -123
-35 -57 -46 -120 -144 -128 -201 -11 -80 27 -789 46 -865 7 -26 24 -50 54 -75
43 -35 45 -40 45 -90 l0 -53 -285 0 -285 0 0 24 c0 40 19 79 51 106 39 33 50
82 44 200 -3 52 -10 226 -15 385 -6 180 -15 309 -24 340 -27 102 -106 223
-163 250 -48 23 -212 22 -261 -2 -39 -19 -94 -85 -139 -168 l-27 -50 2 -420
c2 -231 5 -435 9 -453 3 -22 19 -44 49 -70 41 -35 44 -41 47 -92 l2 -55 -273
0 c-262 0 -274 1 -288 20 -20 28 -10 59 41 128 l43 58 7 247 c15 500 -15 696
-122 807 -48 50 -94 67 -178 68 -82 1 -141 -22 -202 -81 -77 -75 -183 -324
-229 -539 -82 -386 -295 -650 -569 -708 -155 -33 -353 -11 -476 51 -208 104
-306 200 -403 392 -53 105 -70 178 -70 307 0 178 27 267 122 415 65 100 96
136 136 157 16 8 52 34 80 56 28 22 76 51 106 65 96 44 149 51 360 49 175 -3
201 -5 252 -26z m4123 -1105 c60 -28 77 -46 106 -111 42 -96 3 -241 -76 -279
-56 -28 -187 -34 -252 -12 -178 59 -178 317 0 405 60 30 156 29 222 -3z"/>
</g>
</svg>
